<svg xmlns="http://www.w3.org/2000/svg" width="26" height="38" viewBox="0 0 26 38">
  <path id="arrow" d="M1.231,37.835c1.157-.778,2.246-1.6,3.325-2.483a15.209,15.209,0,0,0,2.962-2.536.722.722,0,0,0-.9-1.059.056.056,0,0,0-.047.066,2.913,2.913,0,0,1-.528-.313c-.01-.056-.087-.158-.1-.214a1.533,1.533,0,0,0-.346-.287A98.051,98.051,0,0,1,9.154,21.26a15.4,15.4,0,0,1,1.52-2.691c2.343,2.543,5.91,5.337,9.4,4.1C24.667,21,21.2,16.459,18.438,15.2c-3.288-1.57-5.783-1.023-7.945,1.374a11.3,11.3,0,0,1-2.927-5.8c-.725-5.02,3.7-6.652,7.757-6.025a8.086,8.086,0,0,0,.426,4.667c1.045,2.536,5.584,4.18,7.652,1.914,2.011-2.256-3.237-6.2-4.837-6.91a10.341,10.341,0,0,0-1.456-.557c.047-.066.037-.122.084-.188,1.9-4.492,6.015-1.619,8.129.964.309.409.867-.092.615-.511-1.849-2.744-5.16-5.756-8.4-3.115a5.91,5.91,0,0,0-1.732,2.5C12.441,2.827,8.783,3.459,7,6.658,4.862,10.5,7.363,14.574,9.776,17.51l-.094.132c-2.7,3.647-3.918,8.367-5.27,12.648-.45-.211-.958-.412-1.409-.624a.8.8,0,0,0-.894.27A13.773,13.773,0,0,0,0,37.238.739.739,0,0,0,1.231,37.835ZM12.685,16.313c1.95-1.609,4.394-.471,6.257.71,2.457,1.541,2.44,4.723-.929,4.67-1.718-.05-3.295-1.28-4.592-2.27a16.8,16.8,0,0,1-2.041-1.844A8.679,8.679,0,0,1,12.685,16.313Zm4-11.213a9.456,9.456,0,0,1,4.2,2.685,6.632,6.632,0,0,1,1.277,1.86c.914,1.807-2.344,1.388-3.214,1.134C16.555,9.977,16.243,7.256,16.681,5.1ZM3.057,31.275c.057-.01.067.046.124.036a.54.54,0,0,0,.424.389,12.478,12.478,0,0,1,1.311.409c.192.083.6.36.575.247a.125.125,0,0,0,.134.092c-.568.445-1.116,1-1.684,1.448-.72.587-1.5,1.184-2.273,1.781A12.049,12.049,0,0,1,3.057,31.275Z" fill="#6a35ff"/>
</svg>
