<svg xmlns="http://www.w3.org/2000/svg" width="120" height="87.66" viewBox="0 0 120 87.66">
  <g id="Australia" transform="translate(-11170.177 1767.83)">
    <path id="Path_282" data-name="Path 282" d="M285.017,1338.68H402.983v8.13H285.017Zm4.068-8.14h109.83v8.14H289.085Z" transform="translate(10886.177 -3028)" fill="#f3efff"/>
    <path id="Path_283" data-name="Path 283" d="M325.7,1290.07a142.456,142.456,0,0,0-10.779,15.05h-.2a28.767,28.767,0,0,0-5.491-4.88,24.389,24.389,0,0,0-2.238-1.43l.2-.2-2.034-16.68c6.1,0,14.237,4.07,14.237,4.07S323.661,1287.83,325.7,1290.07Z" transform="translate(10886.177 -3028)" fill="#f3efff"/>
    <path id="Path_284" data-name="Path 284" d="M314.916,1304.92a75.861,75.861,0,0,0-9.56,25.62h-12.2l-4.068-40.68c4.678,0,14.034,5.9,18.1,8.75a23.38,23.38,0,0,1,2.237,1.42A28.645,28.645,0,0,1,314.916,1304.92Z" transform="translate(10886.177 -3028)" fill="#f3efff"/>
    <path id="Path_285" data-name="Path 285" d="M362.712,1286.61c10.373-6.3,19.322-8.95,19.932-8.95-20.339,16.27-24.407,28.48-24.407,28.48a72.007,72.007,0,0,0-4.068,24.4H329.763C334.237,1308.37,349.7,1294.54,362.712,1286.61Z" transform="translate(10886.177 -3028)" fill="#f3efff"/>
    <path id="Path_286" data-name="Path 286" d="M382.847,1295.56a72.425,72.425,0,0,1,16.068-5.7c-24.407,14.24-26.44,40.68-26.44,40.68H354.169C356.61,1311.83,370.847,1301.25,382.847,1295.56Z" transform="translate(10886.177 -3028)" fill="#f3efff"/>
    <path id="Path_287" data-name="Path 287" d="M362.3,1261.39c-20.339,20.34-26.441,40.68-26.441,40.68s-6.1,15.86-6.1,28.47H305.356a75.16,75.16,0,0,1,9.763-25.42,90.827,90.827,0,0,1,10.983-14.85A131.1,131.1,0,0,1,362.3,1261.39Z" transform="translate(10886.177 -3028)" fill="#f3efff"/>
    <path id="Path_288" data-name="Path 288" d="M362.3,1261.39v24.41l.407.81c-13.017,7.93-28.475,21.56-32.949,43.93,0-12.61,6.1-28.47,6.1-28.47S341.966,1281.73,362.3,1261.39Zm20.542,34.17c-11.8,5.69-26.237,16.27-28.678,34.98a72.007,72.007,0,0,1,4.068-24.4s4.068-12.21,24.407-28.48v17.7Zm16.068-5.7c-4.068,20.34-4.068,32.55-4.068,32.55v8.13H384.678S384.678,1308.17,398.915,1289.86Zm0,0c-14.237,18.31-14.237,40.68-14.237,40.68h-12.2S374.508,1304.1,398.915,1289.86Z" transform="translate(10886.177 -3028)" fill="#cbb8ff"/>
    <path id="Path_289" data-name="Path 289" d="M402.983,1347.83H285.017a1.015,1.015,0,1,1,0-2.03H402.983a1.015,1.015,0,1,1,0,2.03Zm-4.068-8.14H289.085a1.015,1.015,0,1,1,0-2.03h109.83a1.015,1.015,0,1,1,0,2.03Zm-69.152-8.13h-36.61a.963.963,0,0,1-1.017-1.02l-4.068-40.68a1.215,1.215,0,0,1,.2-.81,1.069,1.069,0,0,1,.814-.41c4.271,0,12.406,4.68,17.084,7.73l-1.83-14.64a1.215,1.215,0,0,1,.2-.81,1.04,1.04,0,0,1,.814-.41c6.305,0,14.44,4.07,14.644,4.27a1.047,1.047,0,0,1-1.017,1.83s-6.915-3.46-12.61-3.86L308.2,1298c1.017.61,1.627,1.02,1.627,1.22.407.41.611,1.02.2,1.42a1.01,1.01,0,0,1-1.424.21c-3.661-2.65-13.424-8.95-18.712-9.97l3.864,38.44h10.373c8.543-43.73,55.933-68.34,57.356-68.95.2,0,.2-.2.407-.2h.407a.2.2,0,0,1,.2.2l.2.21c0,.2.2.2.2.4v18.31a1.017,1.017,0,1,1-2.034,0v-15.26a38.161,38.161,0,0,0-6.1,19.33,1.017,1.017,0,0,1-2.034,0A38.919,38.919,0,0,1,356,1268.92c-14.847,17.28-19.525,32.94-19.525,33.15a.965.965,0,0,1-1.831-.61c0-.21,5.492-17.49,21.966-36-13.016,8.13-43.524,30.1-50.236,63.86h22.373c8.542-39.66,52.067-52.47,53.491-52.88h.61a.2.2,0,0,1,.2.2l.2.21c0,.2.2.2.2.4v10.17a1.017,1.017,0,1,1-2.034,0v-6.91c-4.068,6.3-4.068,10.98-4.068,10.98a1.017,1.017,0,1,1-2.034,0c0-.2,0-3.86,2.848-9.35-15.661,13.83-19.119,23.79-19.119,23.79a.965.965,0,1,1-1.83-.61c.2-.4,3.864-10.98,20.339-25.42-11.8,4.68-39.864,18.51-46.779,49.02h22.169c4.678-31.73,44.136-40.48,45.356-40.68h.2c.2,0,.2,0,.407.2a.2.2,0,0,1,.2.2l.2.21v.61c-4.068,19.93-4.068,32.13-4.068,32.34a1.017,1.017,0,0,1-2.034,0c0-.21,0-10.78,3.254-28.27-9.763,14.84-11.186,31.11-11.39,35.39h9.153a1.015,1.015,0,1,1,0,2.03H329.763Zm43.932-2.03h10.169c.2-4.28,1.628-20.75,11.39-35.8C377.966,1306.14,374.3,1324.85,373.7,1329.53Zm-18.3,0h16.271c.61-4.48,4.068-23.8,21.559-37.02C381.83,1296.17,358.847,1306.54,355.39,1329.53Z" transform="translate(10886.177 -3028)" fill="#6a35ff"/>
  </g>
</svg>
