<svg xmlns="http://www.w3.org/2000/svg" width="224" height="150" viewBox="0 0 224 150">
  <g id="Component_Page_01" data-name="Component Page 01" transform="translate(-3076.073 2522)">
    <g id="Group_5" data-name="Group 5" transform="translate(2874.073 -2983)">
      <rect id="Rectangle_3" data-name="Rectangle 3" width="224" height="150" rx="24" transform="translate(202 461)" fill="#fff"/>
    </g>
    <path id="Path_70" data-name="Path 70" d="M269.089,500h7.36v-1.84h-5.232V488.8h-2.128Zm8.193-11.52v2.192h2.112V488.48Zm.08,11.52h1.968v-8.064h-1.968Zm9.126,0h2.384l-3.552-4.9,3.28-3.168h-2.5l-3.088,2.944v-6.4h-1.968V500h1.968v-2.672l.96-.928Zm8.293-2.688a1.711,1.711,0,0,1-1.872,1.184,2.176,2.176,0,0,1-2.224-2.128h5.952c.016-.16.032-.4.032-.672a3.71,3.71,0,0,0-3.92-3.888,3.853,3.853,0,0,0-3.952,4.128,4.043,4.043,0,0,0,4.112,4.192,3.569,3.569,0,0,0,3.792-2.816Zm-2.032-4.032a1.849,1.849,0,0,1,1.952,1.792h-3.968A1.893,1.893,0,0,1,292.749,493.28ZM305,500.128a4.16,4.16,0,1,0-4.224-4.16A4.047,4.047,0,0,0,305,500.128Zm0-1.7a2.477,2.477,0,1,1,2.224-2.464A2.241,2.241,0,0,1,305,498.432Zm12.864-6.5h-1.968v4.4a1.892,1.892,0,0,1-1.872,2.048,1.7,1.7,0,0,1-1.68-1.872v-4.576H310.39v4.992a2.939,2.939,0,0,0,2.992,3.2,2.666,2.666,0,0,0,2.512-1.376V500h1.968Zm6.578,1.648v-1.648H323.5a1.963,1.963,0,0,0-2.064,1.424v-1.424h-1.968V500h1.968v-3.808c0-1.536.5-2.608,1.744-2.608Zm7.225,6.544c1.888,0,3.12-.992,3.12-2.512,0-3.648-4.48-1.728-4.48-3.472,0-.544.464-.864,1.168-.864a1.389,1.389,0,0,1,1.424,1.136h1.792c-.08-1.568-1.376-2.608-3.264-2.608-1.664,0-2.9.992-2.9,2.4,0,3.408,4.416,1.7,4.416,3.488,0,.48-.512.864-1.28.864a1.406,1.406,0,0,1-1.552-1.248h-1.792C328.417,499.04,329.713,500.128,331.665,500.128Zm4.255-11.648v2.192h2.112V488.48ZM336,500h1.968v-8.064H336Zm4.566-10.5v2.432h-1.584v1.648h1.584v3.6A2.649,2.649,0,0,0,343.478,500h1.3v-1.664H343.7a1.082,1.082,0,0,1-1.168-1.232v-3.52h2.24v-1.648h-2.24V489.5Zm10.7,7.808a1.711,1.711,0,0,1-1.872,1.184,2.176,2.176,0,0,1-2.224-2.128h5.952c.016-.16.032-.4.032-.672a3.71,3.71,0,0,0-3.92-3.888,3.853,3.853,0,0,0-3.952,4.128,4.043,4.043,0,0,0,4.112,4.192,3.569,3.569,0,0,0,3.792-2.816Zm-2.032-4.032a1.849,1.849,0,0,1,1.952,1.792h-3.968A1.893,1.893,0,0,1,349.231,493.28Zm7.39,3.728h2.224v-1.536h-2.032c-.48,0-.8-.176-.8-.624,0-1.232,4.4-.224,4.4-3.328,0-1.728-1.424-2.848-3.5-2.848a3.321,3.321,0,0,0-3.616,3.264h1.856a1.63,1.63,0,0,1,1.76-1.664c.96,0,1.536.448,1.536,1.184,0,1.76-4.336.48-4.336,3.472C354.109,496.3,355.133,497.008,356.621,497.008Zm-.688.912V500h2.128v-2.08Z" transform="translate(2874.073 -2983)" fill="#7b88a8"/>
    <path id="Path_71" data-name="Path 71" d="M242,589a13,13,0,1,0-13-13A13,13,0,0,0,242,589Z" transform="translate(2874.073 -2983)" fill="#e6eaf5"/>
    <path id="Path_72" data-name="Path 72" d="M239.47,573.293l-3.459-2.8a.812.812,0,1,0-1.021,1.264l1.68,1.36a2.429,2.429,0,1,0,2.8.176Z" transform="translate(2874.073 -2983)" fill="#7b88a8"/>
    <path id="Path_73" data-name="Path 73" d="M237.938,576a.813.813,0,1,1,0-1.625.8.8,0,0,1,.508.179h0a.813.813,0,0,1-.51,1.445Z" transform="translate(2874.073 -2983)" fill="#fafafa"/>
    <path id="Path_74" data-name="Path 74" d="M249.132,570.615a.81.81,0,0,0-1.142-.12l-3.46,2.8a2.445,2.445,0,1,0,2.8-.175l1.68-1.359A.812.812,0,0,0,249.132,570.615Z" transform="translate(2874.073 -2983)" fill="#7b88a8"/>
    <path id="Path_75" data-name="Path 75" d="M246.062,574.375a.812.812,0,1,1-.51.18A.8.8,0,0,1,246.062,574.375Z" transform="translate(2874.073 -2983)" fill="#fafafa"/>
    <path id="Path_76" data-name="Path 76" d="M246.062,584.125a.815.815,0,0,1-.561-.224,5.079,5.079,0,0,0-7.005,0,.813.813,0,0,1-1.12-1.178,6.7,6.7,0,0,1,9.245,0,.813.813,0,0,1-.559,1.4Z" transform="translate(2874.073 -2983)" fill="#7b88a8"/>
    <path id="Path_77" data-name="Path 77" d="M276,589a13,13,0,1,0-13-13A13,13,0,0,0,276,589Z" transform="translate(2874.073 -2983)" fill="#e6eaf5"/>
    <path id="Path_78" data-name="Path 78" d="M281.171,583.017a.818.818,0,0,1-.575-.237,6.654,6.654,0,0,0-9.193,0,.812.812,0,1,1-1.149-1.149,8.123,8.123,0,0,1,11.491,0,.812.812,0,0,1-.574,1.386Z" transform="translate(2874.073 -2983)" fill="#7b88a8"/>
    <path id="Path_79" data-name="Path 79" d="M271.125,574.375a1.625,1.625,0,1,0-1.625-1.625A1.626,1.626,0,0,0,271.125,574.375Z" transform="translate(2874.073 -2983)" fill="#7b88a8"/>
    <path id="Path_80" data-name="Path 80" d="M280.875,574.375a1.625,1.625,0,1,0-1.625-1.625A1.626,1.626,0,0,0,280.875,574.375Z" transform="translate(2874.073 -2983)" fill="#7b88a8"/>
    <path id="Path_81" data-name="Path 81" d="M310,589a13,13,0,1,0-13-13A13,13,0,0,0,310,589Z" transform="translate(2874.073 -2983)" fill="#e6eaf5"/>
    <path id="Path_82" data-name="Path 82" d="M305.125,574.375a1.625,1.625,0,1,0-1.625-1.625A1.626,1.626,0,0,0,305.125,574.375Z" transform="translate(2874.073 -2983)" fill="#7b88a8"/>
    <path id="Path_83" data-name="Path 83" d="M314.875,574.375a1.625,1.625,0,1,0-1.625-1.625A1.626,1.626,0,0,0,314.875,574.375Z" transform="translate(2874.073 -2983)" fill="#7b88a8"/>
    <path id="Path_84" data-name="Path 84" d="M314.062,582.5h-8.124a.813.813,0,1,1,0-1.625h8.124a.813.813,0,1,1,0,1.625Z" transform="translate(2874.073 -2983)" fill="#7b88a8"/>
    <path id="Path_85" data-name="Path 85" d="M344,589a13,13,0,1,0-13-13A13,13,0,0,0,344,589Z" transform="translate(2874.073 -2983)" fill="#e6eaf5"/>
    <path id="Path_86" data-name="Path 86" d="M344,584.125a8.078,8.078,0,0,1-5.746-2.381A.812.812,0,1,1,339.4,580.6a6.654,6.654,0,0,0,9.193,0,.812.812,0,0,1,1.149,1.148A8.073,8.073,0,0,1,344,584.125Z" transform="translate(2874.073 -2983)" fill="#7b88a8"/>
    <path id="Path_87" data-name="Path 87" d="M340.75,574.375H337.5a.813.813,0,0,1,0-1.625h3.25a.813.813,0,0,1,0,1.625Z" transform="translate(2874.073 -2983)" fill="#7b88a8"/>
    <path id="Path_88" data-name="Path 88" d="M348.875,574.375a1.625,1.625,0,1,0-1.625-1.625A1.626,1.626,0,0,0,348.875,574.375Z" transform="translate(2874.073 -2983)" fill="#7b88a8"/>
    <g id="Group_6" data-name="Group 6" transform="translate(2874.073 -2983)">
      <path id="Path_89" data-name="Path 89" d="M388,593a20,20,0,1,0-20-20A20,20,0,0,0,388,593Z" fill="#ff9f59"/>
      <path id="Path_90" data-name="Path 90" d="M399.225,569.275a1.25,1.25,0,0,1-1.25-1.25,2.5,2.5,0,0,0-5,0,1.25,1.25,0,0,1-2.5,0,5,5,0,0,1,10,0A1.249,1.249,0,0,1,399.225,569.275Z" fill="#c96924"/>
      <path id="Path_91" data-name="Path 91" d="M384.225,569.275a1.25,1.25,0,0,1-1.25-1.25,2.5,2.5,0,0,0-5,0,1.25,1.25,0,0,1-2.5,0,5,5,0,0,1,10,0A1.249,1.249,0,0,1,384.225,569.275Z" fill="#c96924"/>
      <path id="Path_92" data-name="Path 92" d="M402.2,576.023a1.25,1.25,0,0,0-.995-.5H374.75a1.254,1.254,0,0,0-1.2,1.59,14.995,14.995,0,0,0,28.855,0A1.235,1.235,0,0,0,402.2,576.023Z" fill="#fef7fd"/>
    </g>
    <rect id="Rectangle_4" data-name="Rectangle 4" width="108" height="8" rx="4" transform="translate(3134.073 -2464)" fill="#e6eaf5" opacity="0.5"/>
    <rect id="Rectangle_5" data-name="Rectangle 5" width="84" height="8" rx="4" transform="translate(3146.073 -2448)" fill="#e6eaf5" opacity="0.5"/>
  </g>
</svg>
