<svg xmlns="http://www.w3.org/2000/svg" width="382" height="112" viewBox="0 0 382 112">
  <g id="Component_Page_02" data-name="Component Page 02" transform="translate(-3403.073 2561)">
    <g id="Group_9" data-name="Group 9" transform="translate(2874.073 -2983)">
      <rect id="Rectangle_18" data-name="Rectangle 18" width="382" height="112" rx="24" transform="translate(529 422)" fill="#fff"/>
      <path id="Path_94" data-name="Path 94" d="M680.072,464H682.2v-4.256h2.368a3.481,3.481,0,1,0,0-6.944h-4.5Zm2.128-6.032v-3.392h2.272a1.7,1.7,0,1,1,0,3.392Zm12.353,3.344a1.711,1.711,0,0,1-1.872,1.184,2.176,2.176,0,0,1-2.224-2.128h5.952c.016-.16.032-.4.032-.672a3.71,3.71,0,0,0-3.92-3.888,3.853,3.853,0,0,0-3.952,4.128,4.043,4.043,0,0,0,4.112,4.192,3.569,3.569,0,0,0,3.792-2.816Zm-2.032-4.032a1.849,1.849,0,0,1,1.952,1.792h-3.968A1.893,1.893,0,0,1,692.521,457.28Zm8.909,6.848a4.16,4.16,0,1,0-4.224-4.16A4.047,4.047,0,0,0,701.43,464.128Zm0-1.7a2.477,2.477,0,1,1,2.224-2.464A2.241,2.241,0,0,1,701.43,462.432Zm5.488,4.832h1.952V463.12a2.794,2.794,0,0,0,2.288,1.008c2.368,0,3.888-1.7,3.888-4.16s-1.424-4.16-3.744-4.16a2.9,2.9,0,0,0-2.432,1.136v-1.008h-1.952Zm4.016-4.832a2.485,2.485,0,1,1,2.16-2.464A2.2,2.2,0,0,1,710.934,462.432ZM716.321,464h1.952V452.48h-1.952Zm9.217-2.688a1.711,1.711,0,0,1-1.872,1.184,2.176,2.176,0,0,1-2.224-2.128h5.952c.016-.16.032-.4.032-.672a3.71,3.71,0,0,0-3.92-3.888,3.853,3.853,0,0,0-3.952,4.128,4.043,4.043,0,0,0,4.112,4.192,3.569,3.569,0,0,0,3.792-2.816Zm-2.032-4.032a1.849,1.849,0,0,1,1.952,1.792H721.49A1.893,1.893,0,0,1,723.506,457.28Zm11.369,6.848c1.888,0,3.12-.992,3.12-2.512,0-3.648-4.48-1.728-4.48-3.472,0-.544.464-.864,1.168-.864a1.389,1.389,0,0,1,1.424,1.136H737.9c-.08-1.568-1.376-2.608-3.264-2.608-1.664,0-2.9.992-2.9,2.4,0,3.408,4.416,1.7,4.416,3.488,0,.48-.512.864-1.28.864a1.406,1.406,0,0,1-1.552-1.248h-1.792C731.627,463.04,732.923,464.128,734.875,464.128Zm11.822-8.192h-1.968v4.4a1.892,1.892,0,0,1-1.872,2.048,1.7,1.7,0,0,1-1.68-1.872v-4.576h-1.952v4.992a2.939,2.939,0,0,0,2.992,3.2,2.666,2.666,0,0,0,2.512-1.376V464H746.7Zm6,8.192c2.416,0,3.84-1.7,3.84-4.16s-1.424-4.16-3.808-4.16a2.861,2.861,0,0,0-2.368,1.1V452.48h-1.952V464h1.952v-1.008A2.781,2.781,0,0,0,752.7,464.128Zm-.288-1.7a2.483,2.483,0,1,1,2.176-2.464A2.2,2.2,0,0,1,752.411,462.432Zm8.14,1.7c1.888,0,3.12-.992,3.12-2.512,0-3.648-4.48-1.728-4.48-3.472,0-.544.464-.864,1.168-.864a1.389,1.389,0,0,1,1.424,1.136h1.792c-.08-1.568-1.376-2.608-3.264-2.608-1.664,0-2.9.992-2.9,2.4,0,3.408,4.416,1.7,4.416,3.488,0,.48-.512.864-1.28.864A1.406,1.406,0,0,1,759,461.312h-1.792C757.3,463.04,758.6,464.128,760.551,464.128Zm7.967,0a3.7,3.7,0,0,0,3.9-3.024h-1.984a1.79,1.79,0,0,1-1.84,1.328c-1.376,0-2.128-1.056-2.128-2.464s.736-2.464,2.1-2.464a1.809,1.809,0,0,1,1.856,1.376h1.952a3.591,3.591,0,0,0-3.856-3.072,4.16,4.16,0,0,0,0,8.32Zm9.981-6.544v-1.648h-.944a1.963,1.963,0,0,0-2.064,1.424v-1.424h-1.968V464h1.968v-3.808c0-1.536.5-2.608,1.744-2.608Zm.893-5.1v2.192H781.5V452.48Zm.08,11.52h1.968v-8.064h-1.968Zm7.974.128c2.416,0,3.84-1.7,3.84-4.16s-1.424-4.16-3.808-4.16a2.861,2.861,0,0,0-2.368,1.1V452.48h-1.952V464h1.952v-1.008A2.78,2.78,0,0,0,787.446,464.128Zm-.288-1.7a2.483,2.483,0,1,1,2.176-2.464A2.2,2.2,0,0,1,787.158,462.432Zm10.858-1.12a1.711,1.711,0,0,1-1.872,1.184,2.176,2.176,0,0,1-2.224-2.128h5.952c.016-.16.032-.4.032-.672a3.71,3.71,0,0,0-3.92-3.888,3.853,3.853,0,0,0-3.952,4.128,4.043,4.043,0,0,0,4.112,4.192,3.569,3.569,0,0,0,3.792-2.816Zm-2.032-4.032a1.849,1.849,0,0,1,1.952,1.792h-3.968A1.893,1.893,0,0,1,795.984,457.28Zm8.525,6.848a2.78,2.78,0,0,0,2.336-1.136V464H808.8V452.48h-1.952v4.432a2.839,2.839,0,0,0-2.368-1.1c-2.384,0-3.808,1.7-3.808,4.16S802.093,464.128,804.509,464.128Zm.288-1.7a2.483,2.483,0,1,1,2.176-2.464A2.2,2.2,0,0,1,804.8,462.432Zm10.039-8.928v2.432h-1.584v1.648h1.584v3.6A2.649,2.649,0,0,0,817.748,464h1.3v-1.664h-1.072A1.082,1.082,0,0,1,816.8,461.1v-3.52h2.24v-1.648H816.8V453.5Zm8.937,10.624a4.16,4.16,0,1,0-4.224-4.16A4.047,4.047,0,0,0,823.773,464.128Zm0-1.7A2.477,2.477,0,1,1,826,459.968,2.241,2.241,0,0,1,823.773,462.432Zm8.784,1.7a2.78,2.78,0,0,0,2.336-1.136V464h1.952V452.48h-1.952v4.432a2.839,2.839,0,0,0-2.368-1.1c-2.384,0-3.808,1.7-3.808,4.16S830.141,464.128,832.557,464.128Zm.288-1.7a2.483,2.483,0,1,1,2.176-2.464A2.2,2.2,0,0,1,832.845,462.432Zm8.986-6.624c-2.1,0-3.456,1.248-3.552,2.848h1.76a1.543,1.543,0,0,1,1.7-1.376c1.04,0,1.648.56,1.648,1.344a.519.519,0,0,1-.592.544H841.3c-1.808,0-3.024.976-3.024,2.544a2.459,2.459,0,0,0,2.688,2.416,2.505,2.505,0,0,0,2.416-1.328V464h1.936v-5.184C845.319,456.992,843.879,455.808,841.831,455.808Zm-.4,6.864c-.736,0-1.248-.416-1.248-1.04,0-.7.56-1.168,1.392-1.168h1.808v.128A1.892,1.892,0,0,1,841.431,462.672Zm12.015-6.736H851.43l-1.856,5.536-1.872-5.536h-2L848.646,464l-1.136,3.264h1.872l1.248-3.648Z" fill="#7b88a8"/>
      <rect id="Rectangle_19" data-name="Rectangle 19" width="208" height="8" rx="4" transform="translate(679 483)" fill="#e6eaf5" opacity="0.5"/>
      <rect id="Rectangle_20" data-name="Rectangle 20" width="134" height="8" rx="4" transform="translate(679 499)" fill="#e6eaf5" opacity="0.5"/>
      <rect id="Rectangle_21" data-name="Rectangle 21" width="104" height="72" rx="12" transform="translate(549 442)" fill="#fff7f2"/>
      <path id="Path_95" data-name="Path 95" d="M586.163,477.2h-8.04v-8h-4.2v8h-8v4.2h8v8h4.2v-8h8.04Zm13.626,5.48a7.962,7.962,0,0,0,6.52-3.36c-.24,4.88-2.8,8.6-6.56,8.6-2.72,0-4.68-1.48-5.12-3.56h-4.96c.6,4.48,4.48,7.96,10.24,7.96,6.68,0,11.32-5.52,11.32-15.32,0-7.64-3.88-13.32-10.88-13.32-5.84,0-10.36,4.12-10.36,9.56C589.989,478.6,593.909,482.68,599.789,482.68Zm.48-14.44a4.82,4.82,0,0,1,5.04,5,4.748,4.748,0,0,1-5.04,4.88,4.683,4.683,0,0,1-4.96-4.88A4.756,4.756,0,0,1,600.269,468.24Zm23.984,14.44a7.962,7.962,0,0,0,6.52-3.36c-.24,4.88-2.8,8.6-6.56,8.6-2.72,0-4.68-1.48-5.12-3.56h-4.96c.6,4.48,4.48,7.96,10.24,7.96,6.68,0,11.32-5.52,11.32-15.32,0-7.64-3.88-13.32-10.88-13.32-5.84,0-10.36,4.12-10.36,9.56C614.453,478.6,618.373,482.68,624.253,482.68Zm.48-14.44a4.82,4.82,0,0,1,5.04,5,4.748,4.748,0,0,1-5.04,4.88,4.683,4.683,0,0,1-4.96-4.88A4.756,4.756,0,0,1,624.733,468.24Z" fill="#ff9f59"/>
    </g>
  </g>
</svg>
