<svg xmlns="http://www.w3.org/2000/svg" width="46" height="46" viewBox="0 0 46 46">
  <path id="Dribbble" d="M23,0A23,23,0,1,0,46,23,23,23,0,0,0,23,0ZM41.948,21.93a41.024,41.024,0,0,0-13.614-.14c-.468-1.079-.953-2.156-1.47-3.22A27.139,27.139,0,0,0,37.5,10.746,18.9,18.9,0,0,1,41.948,21.93ZM34.584,7.972a23.259,23.259,0,0,1-9.557,7.053A88.718,88.718,0,0,0,18.342,4.6a18.729,18.729,0,0,1,16.242,3.37Zm-20.156-1.9a85.466,85.466,0,0,1,6.779,10.314A60.956,60.956,0,0,1,4.563,18.5,19.035,19.035,0,0,1,14.428,6.069ZM4,23l.025-.491A64.281,64.281,0,0,0,23.1,19.976q.67,1.366,1.284,2.745A29.6,29.6,0,0,0,8.4,35.141,18.908,18.908,0,0,1,4,23ZM11.34,37.97c3.774-5.919,8.59-9.771,14.563-11.552a75.006,75.006,0,0,1,3.916,14.3A18.829,18.829,0,0,1,11.34,37.97Zm22.207.824a78.771,78.771,0,0,0-3.68-13.219,38.267,38.267,0,0,1,11.881.376A19.018,19.018,0,0,1,33.547,38.794Z" transform="translate(-0.001 -0.001)" fill="#ea4c89"/>
</svg>
