<svg xmlns="http://www.w3.org/2000/svg" xmlns:xlink="http://www.w3.org/1999/xlink" width="120" height="120" viewBox="0 0 120 120">
  <defs>
    <clipPath id="clip-path">
      <rect id="Rectangle_62" data-name="Rectangle 62" width="120" height="120" transform="translate(660 1229)" fill="#fff"/>
    </clipPath>
  </defs>
  <g id="Europe" transform="translate(-11546.177 1799)">
    <g id="Group_48" data-name="Group 48" transform="translate(10886.177 -3028)" clip-path="url(#clip-path)">
      <path id="Path_292" data-name="Path 292" d="M738.3,1254.42v36.61H701.7v-36.61H738.3Zm-22.372,93.56h-10.17v-28.47h28.475v28.47h-18.3Zm8.135-28.47h-18.3v-28.48h28.475v28.48Zm2.034-73.22,4.068,8.13H709.831l4.068-8.13h12.2Z" fill="#fff7f2"/>
      <path id="Path_293" data-name="Path 293" d="M720,1262.56a10.17,10.17,0,1,1-10.17,10.17A10.068,10.068,0,0,1,720,1262.56Z" fill="#ffddc5"/>
      <path id="Path_294" data-name="Path 294" d="M778.983,1349H661.017a1.015,1.015,0,1,1,0-2.03h43.729v-54.92H701.7a.963.963,0,0,1-1.017-1.02v-40.67a1.017,1.017,0,1,1,2.034,0v3.05h6.508l3.865-7.53a1.081,1.081,0,0,1,.813-.61h5.085v-15.25a1.017,1.017,0,1,1,2.034,0v15.25H726.1c.406,0,.813.2.813.61l3.865,7.53H732.2a1.015,1.015,0,1,1,0,2.03H702.712v34.58h34.576v-39.66a1.017,1.017,0,1,1,2.034,0v40.67a.963.963,0,0,1-1.017,1.02H706.78v26.44h8.135v-19.32a1.017,1.017,0,1,1,2.034,0v19.32h6.1v-19.32a1.017,1.017,0,1,1,2.034,0v19.32h3.051a1.02,1.02,0,0,1,0,2.04H706.78v26.44h8.135v-19.33a1.017,1.017,0,0,1,2.034,0v19.33h6.1v-19.33a1.017,1.017,0,0,1,2.034,0v19.33h8.135v-49.83a1.017,1.017,0,1,1,2.034,0v49.83h43.729a1.015,1.015,0,1,1,0,2.03Zm-67.525-95.59h17.084l-3.051-6.1H714.508ZM720,1283.92a11.19,11.19,0,1,1,11.186-11.19A11.289,11.289,0,0,1,720,1283.92Zm0-20.34a9.15,9.15,0,1,0,9.152,9.15A9.109,9.109,0,0,0,720,1263.58Zm2.034,12.2a1.241,1.241,0,0,1-.814-.2l-2.033-2.04c-.2-.2-.2-.4-.2-.81v-4.07a1.017,1.017,0,1,1,2.034,0v3.66l1.83,1.83a.99.99,0,0,1,0,1.43A1.237,1.237,0,0,1,722.034,1275.78Z" fill="#ff9f59"/>
    </g>
  </g>
</svg>
