<svg xmlns="http://www.w3.org/2000/svg" width="72" height="72" viewBox="0 0 72 72">
  <g id="Feature_Icon_1" data-name="Feature Icon 1" transform="translate(17597.258 21.972)">
    <rect id="Rectangle_236" data-name="Rectangle 236" width="72" height="72" rx="36" transform="translate(-17597.258 -21.972)" fill="#ebfbff"/>
    <path id="Path_881" data-name="Path 881" d="M460,479v.06a6.991,6.991,0,0,1-12.253,4.6l-4.6-5.257a6.064,6.064,0,0,0-6.94-1.59" transform="translate(-18009.258 -464.972)" fill="none" stroke="#4ddffd" stroke-linecap="round" stroke-linejoin="round" stroke-width="2"/>
    <path id="Path_882" data-name="Path 882" d="M456.485,470.515a12,12,0,1,1-16.97,0,12,12,0,0,1,16.97,0" transform="translate(-18009.258 -464.972)" fill="none" stroke="#4ddffd" stroke-linecap="round" stroke-linejoin="round" stroke-width="2"/>
    <path id="Path_883" data-name="Path 883" d="M459.916,477.624l-3.517-1.759a8.2,8.2,0,0,0-9.468,1.538l-3.6,3.6a5,5,0,0,1-4.748,1.314A3.415,3.415,0,0,1,436,479" transform="translate(-18009.258 -464.972)" fill="none" stroke="#4ddffd" stroke-linecap="round" stroke-linejoin="round" stroke-width="2"/>
    <path id="Path_884" data-name="Path 884" d="M459.411,482.7l-3.446-1.722a6.148,6.148,0,0,0-7.1,1.152l-2.79,2.79a5.48,5.48,0,0,1-7.207.366A8.033,8.033,0,0,1,436,479.137V479" transform="translate(-18009.258 -464.972)" fill="none" stroke="#4ddffd" stroke-linecap="round" stroke-linejoin="round" stroke-width="2"/>
  </g>
</svg>
