<svg id="Icon_2" data-name="Icon 2" xmlns="http://www.w3.org/2000/svg" width="56" height="56" viewBox="0 0 56 56">
  <rect id="Rectangle_2" data-name="Rectangle 2" width="56" height="56" rx="12" fill="#fff7f2"/>
  <path id="Path_5" data-name="Path 5" d="M28,31.035l2.632,1.383a.7.7,0,0,0,1.014-.737l-.5-2.931,2.13-2.075a.7.7,0,0,0-.387-1.191l-2.943-.427L28.627,22.39a.7.7,0,0,0-1.253,0l-1.316,2.669-2.943.427a.7.7,0,0,0-.387,1.191l2.13,2.074-.5,2.931a.7.7,0,0,0,1.014.737L28,31.036" fill="none" stroke="#ff9f59" stroke-linecap="round" stroke-linejoin="round" stroke-width="2"/>
  <path id="Path_6" data-name="Path 6" d="M23.572,38.843a3.019,3.019,0,0,1-2.956,2.932A3.018,3.018,0,0,1,23.572,38.843Zm0-2.25q-.07,0-.139,0a5.239,5.239,0,0,0-5.062,5.019,2.25,2.25,0,0,0,2.244,2.409q.07,0,.139,0A5.239,5.239,0,0,0,25.816,39a2.25,2.25,0,0,0-2.244-2.409Zm0,4.5h0Z" fill="#ffddc5"/>
  <path id="Path_7" data-name="Path 7" d="M15.568,32.942a3.153,3.153,0,0,1,2.074.825,3.02,3.02,0,0,1-4.165.017A3.153,3.153,0,0,1,15.568,32.942Zm0-2.25A5.364,5.364,0,0,0,11.987,32.1,2.251,2.251,0,0,0,12,35.485a5.263,5.263,0,0,0,7.128-.03,2.251,2.251,0,0,0-.015-3.387A5.363,5.363,0,0,0,15.568,30.692Z" fill="#ffddc5"/>
  <path id="Path_8" data-name="Path 8" d="M13.015,22.73a3.063,3.063,0,0,1,2.946,3.026A3.063,3.063,0,0,1,13.015,22.73Zm0-2.25a2.25,2.25,0,0,0-2.247,2.369A5.281,5.281,0,0,0,15.781,28c.06,0,.12.007.18.007a2.25,2.25,0,0,0,2.247-2.368,5.28,5.28,0,0,0-5.013-5.149C13.135,20.482,13.075,20.48,13.015,20.48Z" fill="#ffddc5"/>
  <path id="Path_9" data-name="Path 9" d="M19.457,14.224a3.145,3.145,0,0,1-.018,4.337A3.144,3.144,0,0,1,19.457,14.224Zm0-2.25a2.255,2.255,0,0,0-1.687.76,5.365,5.365,0,0,0-.03,7.3,2.251,2.251,0,0,0,1.691.775h.009a2.255,2.255,0,0,0,1.688-.76,5.363,5.363,0,0,0,.03-7.3,2.249,2.249,0,0,0-1.691-.777Z" fill="#ffddc5"/>
  <path id="Path_10" data-name="Path 10" d="M32.428,38.844a3.019,3.019,0,0,1,2.956,2.932A3.019,3.019,0,0,1,32.428,38.844Zm0-2.25A2.25,2.25,0,0,0,30.184,39a5.237,5.237,0,0,0,5.062,5.019q.07,0,.14,0a2.25,2.25,0,0,0,2.244-2.409A5.237,5.237,0,0,0,32.567,36.6Q32.5,36.594,32.428,36.594Z" fill="#ffddc5"/>
  <path id="Path_11" data-name="Path 11" d="M40.431,32.942a3.153,3.153,0,0,1,2.091.841,3.02,3.02,0,0,1-4.166-.017A3.153,3.153,0,0,1,40.431,32.942Zm0-2.25a5.37,5.37,0,0,0-3.549,1.376,2.251,2.251,0,0,0-.015,3.387,5.263,5.263,0,0,0,7.128.03A2.251,2.251,0,0,0,44.01,32.1,5.36,5.36,0,0,0,40.431,30.692Z" fill="#ffddc5"/>
  <path id="Path_12" data-name="Path 12" d="M42.984,22.73a3.062,3.062,0,0,1-2.946,3.026A3.062,3.062,0,0,1,42.984,22.73Zm0-2.25c-.06,0-.12,0-.18.008a5.281,5.281,0,0,0-5.013,5.149,2.25,2.25,0,0,0,2.247,2.368c.06,0,.12,0,.18-.007a5.281,5.281,0,0,0,5.013-5.149,2.25,2.25,0,0,0-2.247-2.369Zm0,4.5h0Z" fill="#ffddc5"/>
  <path id="Path_13" data-name="Path 13" d="M36.542,14.224a3.143,3.143,0,0,1,.018,4.335A3.143,3.143,0,0,1,36.542,14.224Zm0-2.25h-.009a2.253,2.253,0,0,0-1.691.776,5.363,5.363,0,0,0,.03,7.3,2.248,2.248,0,0,0,1.688.76h.009a2.253,2.253,0,0,0,1.691-.775,5.363,5.363,0,0,0-.03-7.3A2.255,2.255,0,0,0,36.542,11.974Z" fill="#ffddc5"/>
</svg>
