<svg id="Icon_1" data-name="Icon 1" xmlns="http://www.w3.org/2000/svg" width="56" height="56" viewBox="0 0 56 56">
  <rect id="Rectangle_1" data-name="Rectangle 1" width="56" height="56" rx="12" fill="#f3efff"/>
  <path id="Path_1" data-name="Path 1" d="M20.5,25a2.916,2.916,0,0,1,2.25-1.14A2.951,2.951,0,0,1,25,25" fill="none" stroke="#6a35ff" stroke-linecap="round" stroke-linejoin="round" stroke-width="2"/>
  <path id="Path_2" data-name="Path 2" d="M31,25a2.916,2.916,0,0,1,2.25-1.14A2.951,2.951,0,0,1,35.5,25" fill="none" stroke="#6a35ff" stroke-linecap="round" stroke-linejoin="round" stroke-width="2"/>
  <path id="Path_3" data-name="Path 3" d="M37.546,18.454a13.5,13.5,0,1,1-19.092,0,13.5,13.5,0,0,1,19.092,0" fill="none" stroke="#cbb8ff" stroke-linecap="round" stroke-linejoin="round" stroke-width="2"/>
  <path id="Path_4" data-name="Path 4" d="M33.25,32.032a7.987,7.987,0,0,1-10.5,0" fill="none" stroke="#6a35ff" stroke-linecap="round" stroke-linejoin="round" stroke-width="2"/>
</svg>
