<svg id="Icon_3" data-name="Icon 3" xmlns="http://www.w3.org/2000/svg" width="56" height="56" viewBox="0 0 56 56">
  <rect id="Rectangle_3" data-name="Rectangle 3" width="56" height="56" rx="12" fill="#f0fbf7"/>
  <path id="Path_14" data-name="Path 14" d="M40,43H31a3,3,0,0,1-3-3V31a3,3,0,0,1,3-3h9a3,3,0,0,1,3,3v9A3,3,0,0,1,40,43Z" fill="none" stroke="#bef0dc" stroke-linecap="round" stroke-linejoin="round" stroke-width="2"/>
  <path id="Path_15" data-name="Path 15" d="M27.994,34.359a12.824,12.824,0,0,1-5.486.123L17.8,36.8c0-1.6,0-3.133,0-4.267A10.517,10.517,0,0,1,13,23.86C13,17.834,18.4,13,25,13s12,4.834,12,10.86a9.954,9.954,0,0,1-.909,4.146" fill="none" stroke="#bef0dc" stroke-linecap="round" stroke-linejoin="round" stroke-width="2"/>
  <path id="Path_16" data-name="Path 16" d="M26.06,22.938h0l0,0a1.5,1.5,0,0,0-2.117,0h0l0,0a1.5,1.5,0,1,0,2.121,0Z" fill="none" stroke="#46d39a" stroke-linecap="round" stroke-linejoin="round" stroke-width="1"/>
  <path id="Path_17" data-name="Path 17" d="M29.941,22.936h0l0,0a1.5,1.5,0,1,0,2.121,0A1.5,1.5,0,0,0,29.94,22.938Z" fill="none" stroke="#46d39a" stroke-linecap="round" stroke-linejoin="round" stroke-width="1"/>
  <path id="Path_18" data-name="Path 18" d="M17.941,22.936h0l0,0a1.5,1.5,0,1,0,2.121,0A1.5,1.5,0,0,0,17.94,22.938Z" fill="none" stroke="#46d39a" stroke-linecap="round" stroke-linejoin="round" stroke-width="1"/>
  <path id="Path_19" data-name="Path 19" d="M38.833,33.833,34.666,38l-2.5-2.5" fill="none" stroke="#46d39a" stroke-linecap="round" stroke-linejoin="round" stroke-width="2"/>
</svg>
