<svg xmlns="http://www.w3.org/2000/svg" width="19.5" height="19.5" viewBox="0 0 19.5 19.5">
  <g id="instagram" transform="translate(-2.25 -2.25)">
    <path id="Path_221" data-name="Path 221" d="M7.5,3H16.5A4.5,4.5,0,0,1,21,7.5V16.5A4.5,4.5,0,0,1,16.5,21H7.5A4.5,4.5,0,0,1,3,16.5V7.5A4.5,4.5,0,0,1,7.5,3Z" fill="none" stroke="#7b88a8" stroke-linecap="round" stroke-linejoin="round" stroke-width="1.5" fill-rule="evenodd"/>
    <path id="Path_222" data-name="Path 222" d="M16.949,6.713a.338.338,0,1,0,.338.338A.339.339,0,0,0,16.949,6.713Z" fill="none" stroke="#7b88a8" stroke-linecap="round" stroke-linejoin="round" stroke-width="1.5"/>
    <path id="Path_223" data-name="Path 223" d="M14.545,9.454a3.6,3.6,0,1,1-5.091,0,3.6,3.6,0,0,1,5.091,0" fill="none" stroke="#7b88a8" stroke-linecap="round" stroke-linejoin="round" stroke-width="1.5"/>
  </g>
</svg>
