<svg xmlns="http://www.w3.org/2000/svg" width="512" height="391" viewBox="0 0 512 391">
  <g id="mail" transform="translate(0 -60.5)">
    <g id="Group_63" data-name="Group 63">
      <path id="Path_432" data-name="Path 432" d="M492,291.5a20,20,0,0,0,20-20v-131a80.091,80.091,0,0,0-80-80H80a80.091,80.091,0,0,0-80,80v231a80.091,80.091,0,0,0,80,80H432a80.091,80.091,0,0,0,80-80,20,20,0,0,0-40,0,40.045,40.045,0,0,1-40,40H80a40.045,40.045,0,0,1-40-40V144.738L213.755,252.783a79.506,79.506,0,0,0,84.49,0L472,144.738V271.5A20,20,0,0,0,492,291.5ZM277.122,218.814a39.751,39.751,0,0,1-42.244,0L56.689,108.012A39.783,39.783,0,0,1,80,100.5H432a39.784,39.784,0,0,1,23.311,7.513Z" fill="#7b88a8"/>
    </g>
  </g>
</svg>
