<svg xmlns="http://www.w3.org/2000/svg" xmlns:xlink="http://www.w3.org/1999/xlink" width="406.5" height="386.5" viewBox="0 0 406.5 386.5">
  <defs>
    <filter id="Rectangle_40" x="0" y="0" width="333" height="270" filterUnits="userSpaceOnUse">
      <feOffset dy="3" input="SourceAlpha"/>
      <feGaussianBlur stdDeviation="12.5" result="blur"/>
      <feFlood flood-color="#80ddf5" flood-opacity="0.102"/>
      <feComposite operator="in" in2="blur"/>
      <feComposite in="SourceGraphic"/>
    </filter>
    <filter id="Rectangle_44" x="40.5" y="247.5" width="366" height="139" filterUnits="userSpaceOnUse">
      <feOffset dy="3" input="SourceAlpha"/>
      <feGaussianBlur stdDeviation="3" result="blur-2"/>
      <feFlood flood-color="#80ddf5" flood-opacity="0.141"/>
      <feComposite operator="in" in2="blur-2"/>
      <feComposite in="SourceGraphic"/>
    </filter>
  </defs>
  <g id="Step_3_Graphic" data-name="Step 3 Graphic" transform="translate(-1604.668 -1358.596)">
    <g id="Group_37" data-name="Group 37" transform="translate(959.168 245.096)">
      <g transform="matrix(1, 0, 0, 1, 645.5, 1113.5)" filter="url(#Rectangle_40)">
        <rect id="Rectangle_40-2" data-name="Rectangle 40" width="258" height="195" rx="24" transform="translate(37.5 34.5)" fill="#fff"/>
      </g>
    </g>
    <line id="Line_1" data-name="Line 1" x2="205.4" transform="translate(1670.901 1567.116)" opacity="0.5" stroke="#e6eaf5" stroke-linecap="round" stroke-linejoin="round" stroke-width="1" fill="none"/>
    <line id="Line_2" data-name="Line 2" x2="205.4" transform="translate(1670.901 1528.116)" opacity="0.5" stroke="#e6eaf5" stroke-linecap="round" stroke-linejoin="round" stroke-width="1" fill="none"/>
    <line id="Line_3" data-name="Line 3" x2="205.4" transform="translate(1670.901 1489.116)" opacity="0.5" stroke="#e6eaf5" stroke-linecap="round" stroke-linejoin="round" stroke-width="1" fill="none"/>
    <line id="Line_4" data-name="Line 4" x2="205.4" transform="translate(1670.901 1450.116)" opacity="0.5" stroke="#e6eaf5" stroke-linecap="round" stroke-linejoin="round" stroke-width="1" fill="none"/>
    <path id="Path_98" data-name="Path 98" d="M717.076,1221.12a1.948,1.948,0,1,1,3.9,0v101.4h-3.9Z" transform="translate(959.168 245.096)" fill="#9672ff"/>
    <path id="Path_99" data-name="Path 99" d="M781.333,1275.72a1.947,1.947,0,1,1,3.894,0v46.8h-3.894Z" transform="translate(959.168 245.096)" fill="#9672ff"/>
    <path id="Path_100" data-name="Path 100" d="M802.752,1299.12a1.947,1.947,0,1,1,3.894,0v23.4h-3.894Z" transform="translate(959.168 245.096)" fill="#4ddffd"/>
    <path id="Path_101" data-name="Path 101" d="M867.008,1229.9a1.947,1.947,0,1,1,3.894,0v92.62h-3.894Z" transform="translate(959.168 245.096)" fill="#4ddffd"/>
    <path id="Path_102" data-name="Path 102" d="M845.59,1249.88a1.947,1.947,0,0,1,3.894,0v72.64H845.59Z" transform="translate(959.168 245.096)" fill="#9672ff"/>
    <path id="Path_103" data-name="Path 103" d="M909.846,1311.31a1.947,1.947,0,1,1,3.894,0v11.21h-3.894Z" transform="translate(959.168 245.096)" fill="#9672ff"/>
    <path id="Path_104" data-name="Path 104" d="M738.495,1264.51a1.947,1.947,0,1,1,3.894,0v58.02h-3.894Z" transform="translate(959.168 245.096)" fill="#4ddffd"/>
    <path id="Path_105" data-name="Path 105" d="M759.914,1255.73a1.947,1.947,0,0,1,3.894,0v66.8h-3.894Z" transform="translate(959.168 245.096)" fill="#f2b8ec"/>
    <path id="Path_106" data-name="Path 106" d="M888.426,1275.72a1.947,1.947,0,1,1,3.894,0v46.8h-3.894Z" transform="translate(959.168 245.096)" fill="#f2b8ec"/>
    <path id="Path_107" data-name="Path 107" d="M824.17,1210.88a1.947,1.947,0,0,1,3.894,0v111.64H824.17Z" transform="translate(959.168 245.096)" fill="#f2b8ec"/>
    <rect id="Rectangle_41" data-name="Rectangle 41" width="3.894" height="3.9" rx="1.947" transform="translate(1755.104 1416.006)" fill="#9672ff"/>
    <rect id="Rectangle_42" data-name="Rectangle 42" width="3.894" height="3.9" rx="1.947" transform="translate(1792.587 1416.006)" fill="#f2b8ec"/>
    <rect id="Rectangle_43" data-name="Rectangle 43" width="3.894" height="3.9" rx="1.947" transform="translate(1837.372 1416.006)" fill="#4ddffd"/>
    <path id="Path_108" data-name="Path 108" d="M706.988,1175.3h.911v-2.69h2.445v-.81H707.9v-1.84h3.023v-.8h-3.934Z" transform="translate(959.168 245.096)" fill="#7b88a8"/>
    <path id="Path_109" data-name="Path 109" d="M713.28,1175.37a2.28,2.28,0,1,0-2.278-2.28A2.2,2.2,0,0,0,713.28,1175.37Zm0-.75a1.541,1.541,0,1,1,1.4-1.53A1.4,1.4,0,0,1,713.28,1174.62Z" transform="translate(959.168 245.096)" fill="#7b88a8"/>
    <path id="Path_110" data-name="Path 110" d="M716.425,1175.3h.85v-6.27h-.85Z" transform="translate(959.168 245.096)" fill="#7b88a8"/>
    <path id="Path_111" data-name="Path 111" d="M718.445,1175.3h.85v-6.27h-.85Z" transform="translate(959.168 245.096)" fill="#7b88a8"/>
    <path id="Path_112" data-name="Path 112" d="M722.444,1175.37a2.28,2.28,0,1,0-2.278-2.28A2.2,2.2,0,0,0,722.444,1175.37Zm0-.75a1.541,1.541,0,1,1,1.4-1.53A1.4,1.4,0,0,1,722.444,1174.62Z" transform="translate(959.168 245.096)" fill="#7b88a8"/>
    <path id="Path_113" data-name="Path 113" d="M726.381,1175.3h.789l1-3.3,1.008,3.3h.788l1.367-4.42h-.859l-.9,3.29-.99-3.29h-.806l-1,3.29-.912-3.29h-.85Z" transform="translate(959.168 245.096)" fill="#7b88a8"/>
    <path id="Path_114" data-name="Path 114" d="M735.041,1173.86a1.085,1.085,0,0,1-1.192.78,1.4,1.4,0,0,1-1.384-1.4h3.373c.009-.08.018-.22.018-.34a1.987,1.987,0,0,0-2.094-2.09,2.085,2.085,0,0,0-2.13,2.25,2.2,2.2,0,0,0,2.217,2.31,1.911,1.911,0,0,0,2.042-1.51Zm-1.279-2.37a1.153,1.153,0,0,1,1.235,1.12h-2.506A1.213,1.213,0,0,1,733.762,1171.49Z" transform="translate(959.168 245.096)" fill="#7b88a8"/>
    <path id="Path_115" data-name="Path 115" d="M739.28,1171.61v-.73h-.535a1.1,1.1,0,0,0-1.174.85v-.85h-.85v4.42h.85v-2c0-.97.263-1.69,1.069-1.69Z" transform="translate(959.168 245.096)" fill="#7b88a8"/>
    <path id="Path_116" data-name="Path 116" d="M744.77,1175.37a1.952,1.952,0,0,0,1.866-1.11v1.04h.824v-2.18a1.057,1.057,0,0,0-1.061-1.03H744.84v.74h1.332a.379.379,0,0,1,.411.4c0,.8-.849,1.36-1.787,1.36a2.366,2.366,0,0,1,.009-4.7,1.632,1.632,0,0,1,1.726,1.27h.946a2.479,2.479,0,0,0-2.672-2.07,3.144,3.144,0,0,0-.035,6.28Z" transform="translate(959.168 245.096)" fill="#7b88a8"/>
    <path id="Path_117" data-name="Path 117" d="M751,1171.61v-.73h-.535a1.1,1.1,0,0,0-1.174.85v-.85h-.85v4.42h.85v-2c0-.97.263-1.69,1.069-1.69Z" transform="translate(959.168 245.096)" fill="#7b88a8"/>
    <path id="Path_118" data-name="Path 118" d="M753.54,1175.37a2.28,2.28,0,1,0-2.278-2.28A2.2,2.2,0,0,0,753.54,1175.37Zm0-.75a1.541,1.541,0,1,1,1.4-1.53A1.4,1.4,0,0,1,753.54,1174.62Z" transform="translate(959.168 245.096)" fill="#7b88a8"/>
    <path id="Path_119" data-name="Path 119" d="M757.477,1175.3h.789l1-3.3,1.007,3.3h.789l1.367-4.42h-.859l-.9,3.29-.99-3.29h-.807l-1,3.29-.911-3.29h-.85Z" transform="translate(959.168 245.096)" fill="#7b88a8"/>
    <path id="Path_120" data-name="Path 120" d="M763.619,1169.49v1.39h-.9v.73h.9v2.24a1.348,1.348,0,0,0,1.463,1.45h.692v-.74h-.622a.644.644,0,0,1-.683-.73v-2.22h1.3v-.73h-1.3v-1.39Z" transform="translate(959.168 245.096)" fill="#7b88a8"/>
    <path id="Path_121" data-name="Path 121" d="M766.654,1175.3h.85v-2.4a1.218,1.218,0,0,1,1.183-1.33,1.05,1.05,0,0,1,1.034,1.18v2.55h.85v-2.72a1.617,1.617,0,0,0-1.647-1.77,1.455,1.455,0,0,0-1.42.85v-2.63h-.85Z" transform="translate(959.168 245.096)" fill="#7b88a8"/>
    <path id="Path_122" data-name="Path 122" d="M705.11,1321.6h.245c1.179,0,1.67-.8,1.67-2.25v-.37c0-1.46-.491-2.26-1.67-2.26h-.245c-1.173,0-1.67.8-1.67,2.26v.37C703.44,1320.81,703.937,1321.6,705.11,1321.6Zm.027-.62c-.661,0-.981-.5-.981-1.5v-.64c0-1,.32-1.49.981-1.49h.2c.661,0,.981.49.981,1.49v.64c0,1-.32,1.5-.981,1.5Z" transform="translate(959.168 245.096)" fill="#7b88a8"/>
    <path id="Path_123" data-name="Path 123" d="M698.926,1277.77h-.681c-.048.51-.232.65-.566.65h-.368v.63h.423a.636.636,0,0,0,.483-.17v3.67h.709Z" transform="translate(959.168 245.096)" fill="#7b88a8"/>
    <path id="Path_124" data-name="Path 124" d="M701.443,1282.6h.245c1.179,0,1.67-.8,1.67-2.25v-.37c0-1.46-.491-2.26-1.67-2.26h-.245c-1.173,0-1.67.8-1.67,2.26v.37C699.773,1281.81,700.27,1282.6,701.443,1282.6Zm.027-.62c-.661,0-.982-.5-.982-1.5v-.64c0-1,.321-1.49.982-1.49h.2c.662,0,.982.49.982,1.49v.64c0,1-.32,1.5-.982,1.5Z" transform="translate(959.168 245.096)" fill="#7b88a8"/>
    <path id="Path_125" data-name="Path 125" d="M706.46,1282.55h.817l-1.574-2.1,1.445-1.34h-.859l-1.492,1.37v-2.81h-.668v4.88h.668v-1.25l.429-.4Z" transform="translate(959.168 245.096)" fill="#7b88a8"/>
    <path id="Path_126" data-name="Path 126" d="M696.008,1240.36h.722a.882.882,0,0,1,.893-1.03.8.8,0,0,1,.872.83,1,1,0,0,1-.654.93l-.743.37a1.851,1.851,0,0,0-1.131,1.58v.51h3.264v-.63h-2.569c0-.39.389-.71.736-.88l.7-.35a1.741,1.741,0,0,0,1.118-1.53,1.448,1.448,0,0,0-1.6-1.44A1.489,1.489,0,0,0,696.008,1240.36Z" transform="translate(959.168 245.096)" fill="#7b88a8"/>
    <path id="Path_127" data-name="Path 127" d="M701.443,1243.6h.245c1.179,0,1.67-.8,1.67-2.25v-.37c0-1.46-.491-2.26-1.67-2.26h-.245c-1.173,0-1.67.8-1.67,2.26v.37C699.773,1242.81,700.27,1243.6,701.443,1243.6Zm.027-.62c-.661,0-.982-.5-.982-1.5v-.64c0-1,.321-1.49.982-1.49h.2c.662,0,.982.49.982,1.49v.64c0,1-.32,1.5-.982,1.5Z" transform="translate(959.168 245.096)" fill="#7b88a8"/>
    <path id="Path_128" data-name="Path 128" d="M706.46,1243.55h.817l-1.574-2.1,1.445-1.34h-.859l-1.492,1.37v-2.81h-.668v4.88h.668v-1.25l.429-.4Z" transform="translate(959.168 245.096)" fill="#7b88a8"/>
    <path id="Path_129" data-name="Path 129" d="M697.505,1204.6c.914,0,1.718-.5,1.718-1.42a1.182,1.182,0,0,1-.191-2.19,1.4,1.4,0,0,0-1.561-1.27,1.46,1.46,0,0,0-1.553,1.44h.681a.791.791,0,0,1,.866-.81c.518,0,.858.25.858.68a.748.748,0,0,1-.824.75h-.4v.61h.4c.614,0,1,.27,1,.78s-.388.81-1,.81a.944.944,0,0,1-1.035-.93h-.7A1.583,1.583,0,0,0,697.505,1204.6Z" transform="translate(959.168 245.096)" fill="#7b88a8"/>
    <path id="Path_130" data-name="Path 130" d="M701.443,1204.6h.245c1.179,0,1.67-.8,1.67-2.25v-.37c0-1.46-.491-2.26-1.67-2.26h-.245c-1.173,0-1.67.8-1.67,2.26v.37C699.773,1203.81,700.27,1204.6,701.443,1204.6Zm.027-.62c-.661,0-.982-.5-.982-1.5v-.64c0-1,.321-1.49.982-1.49h.2c.662,0,.982.49.982,1.49v.64c0,1-.32,1.5-.982,1.5Z" transform="translate(959.168 245.096)" fill="#7b88a8"/>
    <path id="Path_131" data-name="Path 131" d="M706.46,1204.55h.817l-1.574-2.1,1.445-1.34h-.859l-1.492,1.37v-2.81h-.668v4.88h.668v-1.25l.429-.4Z" transform="translate(959.168 245.096)" fill="#7b88a8"/>
    <path id="Path_132" data-name="Path 132" d="M803.657,1175.3h.674v-3.56l1.432,3.56h.572l1.424-3.56v3.56h.682v-4.78h-.872l-1.52,3.81-1.52-3.81h-.872Z" transform="translate(959.168 245.096)" fill="#7b88a8"/>
    <path id="Path_133" data-name="Path 133" d="M810.7,1171.81a1.374,1.374,0,0,0-1.479,1.18h.613a.781.781,0,0,1,.845-.65c.532,0,.832.28.832.7a.2.2,0,0,1-.232.21h-.715c-.811,0-1.336.4-1.336,1.07a1.045,1.045,0,0,0,1.165,1.03,1.181,1.181,0,0,0,1.118-.61v.56h.661v-2.22A1.3,1.3,0,0,0,810.7,1171.81Zm-.177,3.02c-.382,0-.641-.21-.641-.53,0-.36.293-.59.743-.59h.886v.08A.934.934,0,0,1,810.518,1174.83Z" transform="translate(959.168 245.096)" fill="#7b88a8"/>
    <path id="Path_134" data-name="Path 134" d="M812.967,1175.3h.661v-4.88h-.661Z" transform="translate(959.168 245.096)" fill="#7b88a8"/>
    <path id="Path_135" data-name="Path 135" d="M816.957,1174.18a.845.845,0,0,1-.927.61,1.091,1.091,0,0,1-1.077-1.09h2.624c.007-.07.014-.17.014-.26a1.544,1.544,0,0,0-1.629-1.63,1.623,1.623,0,0,0-1.656,1.75,1.712,1.712,0,0,0,1.724,1.79,1.481,1.481,0,0,0,1.588-1.17Zm-.995-1.84a.9.9,0,0,1,.961.87h-1.949A.941.941,0,0,1,815.962,1172.34Z" transform="translate(959.168 245.096)" fill="#7b88a8"/>
    <path id="Path_136" data-name="Path 136" d="M840.718,1175.3h.708v-2.1h1.9v-.62h-1.9v-1.43h2.352v-.63h-3.06Z" transform="translate(959.168 245.096)" fill="#7b88a8"/>
    <path id="Path_137" data-name="Path 137" d="M846.491,1174.18a.845.845,0,0,1-.927.61,1.09,1.09,0,0,1-1.077-1.09h2.624c.007-.07.013-.17.013-.26a1.544,1.544,0,0,0-1.628-1.63,1.624,1.624,0,0,0-1.657,1.75,1.713,1.713,0,0,0,1.725,1.79,1.481,1.481,0,0,0,1.588-1.17Zm-1-1.84a.9.9,0,0,1,.96.87h-1.949A.942.942,0,0,1,845.5,1172.34Z" transform="translate(959.168 245.096)" fill="#7b88a8"/>
    <path id="Path_138" data-name="Path 138" d="M847.8,1175.3h.661v-2a.815.815,0,0,1,.839-.91c.45,0,.722.36.722.91v2h.661v-2a.815.815,0,0,1,.838-.91c.457,0,.73.36.73.91v2h.661v-2.18a1.222,1.222,0,0,0-2.324-.61,1.059,1.059,0,0,0-1.111-.7,1.044,1.044,0,0,0-1.016.66v-.61H847.8Z" transform="translate(959.168 245.096)" fill="#7b88a8"/>
    <path id="Path_139" data-name="Path 139" d="M855.057,1171.81a1.373,1.373,0,0,0-1.479,1.18h.613a.781.781,0,0,1,.845-.65c.532,0,.832.28.832.7a.2.2,0,0,1-.232.21h-.716c-.811,0-1.335.4-1.335,1.07a1.045,1.045,0,0,0,1.165,1.03,1.181,1.181,0,0,0,1.118-.61v.56h.661v-2.22A1.3,1.3,0,0,0,855.057,1171.81Zm-.177,3.02c-.382,0-.641-.21-.641-.53,0-.36.293-.59.743-.59h.886v.08A.934.934,0,0,1,854.88,1174.83Z" transform="translate(959.168 245.096)" fill="#7b88a8"/>
    <path id="Path_140" data-name="Path 140" d="M857.329,1175.3h.661v-4.88h-.661Z" transform="translate(959.168 245.096)" fill="#7b88a8"/>
    <path id="Path_141" data-name="Path 141" d="M861.319,1174.18a.845.845,0,0,1-.927.61,1.091,1.091,0,0,1-1.077-1.09h2.624c.007-.07.014-.17.014-.26a1.544,1.544,0,0,0-1.629-1.63,1.623,1.623,0,0,0-1.656,1.75,1.712,1.712,0,0,0,1.724,1.79,1.481,1.481,0,0,0,1.588-1.17Zm-.995-1.84a.9.9,0,0,1,.961.87h-1.949A.94.94,0,0,1,860.324,1172.34Z" transform="translate(959.168 245.096)" fill="#7b88a8"/>
    <path id="Path_142" data-name="Path 142" d="M887.656,1175.35a2.441,2.441,0,1,0-2.372-2.44A2.335,2.335,0,0,0,887.656,1175.35Zm0-.62a1.824,1.824,0,1,1,1.642-1.82A1.691,1.691,0,0,1,887.656,1174.73Z" transform="translate(959.168 245.096)" fill="#7b88a8"/>
    <path id="Path_143" data-name="Path 143" d="M891.114,1170.78v1.08h-.7v.57h.7v1.74a1.049,1.049,0,0,0,1.138,1.13h.539v-.57h-.484a.509.509,0,0,1-.532-.58v-1.72h1.016v-.57h-1.016v-1.08Z" transform="translate(959.168 245.096)" fill="#7b88a8"/>
    <path id="Path_144" data-name="Path 144" d="M893.475,1175.3h.661v-1.86a.951.951,0,0,1,.92-1.04.816.816,0,0,1,.8.91v1.99h.661v-2.12a1.256,1.256,0,0,0-1.281-1.37,1.127,1.127,0,0,0-1.1.66v-2.05h-.661Z" transform="translate(959.168 245.096)" fill="#7b88a8"/>
    <path id="Path_145" data-name="Path 145" d="M899.821,1174.18a.845.845,0,0,1-.927.61,1.091,1.091,0,0,1-1.077-1.09h2.624c.007-.07.014-.17.014-.26a1.544,1.544,0,0,0-1.629-1.63,1.624,1.624,0,0,0-1.656,1.75,1.712,1.712,0,0,0,1.724,1.79,1.481,1.481,0,0,0,1.588-1.17Zm-.995-1.84a.9.9,0,0,1,.961.87h-1.949A.941.941,0,0,1,898.826,1172.34Z" transform="translate(959.168 245.096)" fill="#7b88a8"/>
    <path id="Path_146" data-name="Path 146" d="M903.118,1172.43v-.57H902.7a.855.855,0,0,0-.913.66v-.66h-.661v3.44h.661v-1.56c0-.75.2-1.31.831-1.31Z" transform="translate(959.168 245.096)" fill="#7b88a8"/>
    <g id="Group_38" data-name="Group 38" transform="translate(959.168 245.096)">
      <g transform="matrix(1, 0, 0, 1, 645.5, 1113.5)" filter="url(#Rectangle_44)">
        <rect id="Rectangle_44-2" data-name="Rectangle 44" width="348" height="121" rx="24" transform="translate(49.5 253.5)" fill="#fff"/>
      </g>
    </g>
    <path id="Path_147" data-name="Path 147" d="M717.6,1394h1.04v-6.08h2.19V1387h-5.42v.92h2.19Zm5.337.08a2.6,2.6,0,1,0-2.6-2.6A2.5,2.5,0,0,0,722.942,1394.08Zm0-.85a1.757,1.757,0,1,1,1.6-1.75A1.6,1.6,0,0,1,722.942,1393.23Zm4.051-5.85v1.58h-1.03v.84h1.03v2.55a1.539,1.539,0,0,0,1.67,1.65h.79v-.84h-.71a.739.739,0,0,1-.78-.84v-2.52h1.49v-.84h-1.49v-1.58Zm5.121,1.5a2.02,2.02,0,0,0-2.17,1.73h.9a1.145,1.145,0,0,1,1.24-.95c.78,0,1.22.42,1.22,1.03,0,.18-.11.3-.34.3h-1.05c-1.19,0-1.96.6-1.96,1.57a1.538,1.538,0,0,0,1.71,1.52,1.74,1.74,0,0,0,1.64-.9v.82h.97v-3.25A1.916,1.916,0,0,0,732.114,1388.88Zm-.26,4.43c-.56,0-.94-.31-.94-.77,0-.53.43-.87,1.09-.87h1.3v.12A1.37,1.37,0,0,1,731.854,1393.31Zm3.593.69h.97v-7.15h-.97Zm6.93.08c1.5,0,2.58-.75,2.58-2.03,0-2.67-3.99-1.54-3.99-3.24,0-.59.51-.97,1.35-.97a1.343,1.343,0,0,1,1.49,1.19h1.01a2.279,2.279,0,0,0-2.5-2.11c-1.41,0-2.39.77-2.39,1.89,0,2.58,3.97,1.57,3.97,3.25,0,.76-.64,1.1-1.52,1.1a1.53,1.53,0,0,1-1.66-1.48h-1.01A2.453,2.453,0,0,0,742.377,1394.08Zm5.518-5.2a2.02,2.02,0,0,0-2.17,1.73h.9a1.145,1.145,0,0,1,1.24-.95c.78,0,1.22.42,1.22,1.03,0,.18-.11.3-.34.3H747.7c-1.19,0-1.96.6-1.96,1.57a1.538,1.538,0,0,0,1.71,1.52,1.74,1.74,0,0,0,1.64-.9v.82h.97v-3.25A1.916,1.916,0,0,0,747.9,1388.88Zm-.26,4.43c-.56,0-.94-.31-.94-.77,0-.53.43-.87,1.09-.87h1.3v.12A1.37,1.37,0,0,1,747.635,1393.31Zm3.594.69h.97v-7.15h-.97Zm5.854-1.64a1.238,1.238,0,0,1-1.36.89,1.593,1.593,0,0,1-1.58-1.6h3.85c.01-.09.02-.25.02-.38a2.27,2.27,0,0,0-2.39-2.39,2.383,2.383,0,0,0-2.43,2.57,2.512,2.512,0,0,0,2.53,2.63,2.176,2.176,0,0,0,2.33-1.72Zm-1.46-2.7a1.315,1.315,0,0,1,1.41,1.28h-2.86A1.381,1.381,0,0,1,755.623,1389.66Zm5.1,4.42c1.14,0,1.89-.59,1.89-1.51,0-2.3-2.88-1.02-2.88-2.27,0-.39.35-.65.87-.65a1,1,0,0,1,1.06.81h.91a1.755,1.755,0,0,0-1.97-1.58c-1.05,0-1.79.58-1.79,1.45,0,2.15,2.86.92,2.86,2.26,0,.37-.37.68-.95.68a1.007,1.007,0,0,1-1.13-.91h-.91A1.839,1.839,0,0,0,760.722,1394.08Z" transform="translate(959.168 245.096)" fill="#7b88a8"/>
    <path id="Path_148" data-name="Path 148" d="M734.905,1452.29H715V1468h308v-24.69l-40.845,6.41a113.889,113.889,0,0,1-32.824.36l-21.372-2.86a63.648,63.648,0,0,0-10.863-.52l-9.836.38a27.76,27.76,0,0,1-14.335-3.36,27.71,27.71,0,0,0-30.312,2.47l-10.41,8.13a17.455,17.455,0,0,1-16.568,2.7l-22.262-9.16a44.725,44.725,0,0,0-37.775,1.75l-4.464,2.34A32.957,32.957,0,0,1,745.38,1454,33.008,33.008,0,0,0,734.905,1452.29Z" transform="translate(959.168 245.096)" fill="#fff"/>
    <path id="Path_150" data-name="Path 150" d="M729.949,1434.48H715V1469h308v-47.88h-11.77a10.822,10.822,0,0,1-9.76-6.14,10.806,10.806,0,0,0-17.492-2.88l-3.763,3.87a14.6,14.6,0,0,1-17.338,2.67l-.947-.51a16,16,0,0,0-13.033-.95l-1.583.58a14.042,14.042,0,0,1-15.592-4.23,14.048,14.048,0,0,0-20.5-1.17l-3.15,3a18.1,18.1,0,0,1-20.028,3.38l-3.841-1.75a20.5,20.5,0,0,0-15.988-.43,20.5,20.5,0,0,1-17.711-1.32l-3.843-2.22a29.729,29.729,0,0,0-30.641.59l-16.97,10.67a27.234,27.234,0,0,1-22.128,3.09,27.267,27.267,0,0,0-16.217.3l-10.731,3.57A63.682,63.682,0,0,1,729.949,1434.48Z" transform="translate(959.168 245.096)" fill="#fff"/>
    <path id="Path_149" data-name="Path 149" d="M715,1452.15h19.908a33.279,33.279,0,0,1,10.474,1.69h0a33.109,33.109,0,0,0,25.763-2.04l4.453-2.31a45.027,45.027,0,0,1,37.763-1.74l22.274,9.09h0a17.594,17.594,0,0,0,16.585-2.69l10.379-8.04a27.883,27.883,0,0,1,30.323-2.47h0a27.835,27.835,0,0,0,14.328,3.34l9.85-.37a63.554,63.554,0,0,1,10.856.51l21.507,2.86a114.214,114.214,0,0,0,32.56-.36l40.977-6.38" transform="translate(959.168 245.096)" fill="none" stroke="#01d2fc" stroke-width="1"/>
    <path id="Path_151" data-name="Path 151" d="M715,1435h14.939a62.591,62.591,0,0,0,20.031-3.29l10.736-3.62a26.807,26.807,0,0,1,16.219-.3h0a26.88,26.88,0,0,0,22.09-3.12l17.013-10.86a29.387,29.387,0,0,1,30.635-.6l3.858,2.26a20.194,20.194,0,0,0,17.694,1.33h0a20.19,20.19,0,0,1,15.985.44L888,1419a17.971,17.971,0,0,0,20.071-3.41l3.127-3.03a13.971,13.971,0,0,1,20.535,1.18h0a13.969,13.969,0,0,0,15.642,4.26l1.512-.56a15.8,15.8,0,0,1,13.048.96l.9.49a14.473,14.473,0,0,0,17.383-2.69l3.686-3.85a10.818,10.818,0,0,1,17.589,2.88h0a10.825,10.825,0,0,0,9.78,6.21H1023" transform="translate(959.168 245.096)" fill="none" stroke="#6a35ff" stroke-width="1"/>
  </g>
</svg>
