<svg xmlns="http://www.w3.org/2000/svg" width="46" height="31" viewBox="0 0 46 31">
  <path id="Webflow" d="M35.119,9.081s-3.73,11.39-4.034,12.33C30.975,20.444,28.239,0,28.239,0c-6.354,0-9.753,4.406-11.548,9.053,0,0-4.531,11.417-4.918,12.384-.028-.886-.691-12.25-.691-12.25C10.7,3.493,5.336.028,1,.028L6.248,31c6.658-.027,10.25-4.406,12.129-9.053,0,0,4.006-10.074,4.172-10.53C22.576,11.848,25.421,31,25.421,31c6.686,0,10.277-4.11,12.211-8.6L47,.028C40.4.028,36.914,4.407,35.119,9.081Z" transform="translate(-0.999 -0.001)" fill="#4353ff"/>
</svg>
